<?xml version="1.0" standalone="no"?><!DOCTYPE svg PUBLIC "-//W3C//DTD SVG 1.1//EN" "http://www.w3.org/Graphics/SVG/1.1/DTD/svg11.dtd"><svg t="1583655144355" class="icon" viewBox="0 0 1024 1024" version="1.1" xmlns="http://www.w3.org/2000/svg" p-id="1207" xmlns:xlink="http://www.w3.org/1999/xlink" width="200" height="200"><defs><style type="text/css"></style></defs><path d="M500.3264 822.33344a20.48 20.48 0 0 0 33.95584 0l193.24928-287.08864a230.17472 230.17472 0 0 0 35.328-122.38848c0-130.58048-110.24384-236.83072-245.76-236.83072s-245.76 106.25024-245.76 236.83072c0 43.29472 12.26752 85.68832 35.81952 123.12576l193.16736 286.35136z m16.7936-605.36832c112.92672 0 204.8 87.87968 204.8 195.87072a188.7232 188.7232 0 0 1-28.71296 100.06528l-175.9232 261.3248-175.80032-260.62848a189.07136 189.07136 0 0 1-29.16352-100.7616c0-107.99104 91.87328-195.87072 204.8-195.87072z" fill="" p-id="1208"></path><path d="M517.12 524.61568c64.2048 0 116.44928-50.52416 116.44928-112.64s-52.224-112.64-116.44928-112.64-116.44928 50.52416-116.44928 112.64 52.24448 112.64 116.44928 112.64z m0-184.32c41.61536 0 75.48928 32.1536 75.48928 71.68s-33.85344 71.68-75.48928 71.68-75.48928-32.1536-75.48928-71.68 33.87392-71.68 75.48928-71.68z" fill="" p-id="1209"></path></svg>